PathFileType	4	(X/Y/Z)	C:/Users/opensim2020/Desktop/walking_exp_matlab/subject01_walking11_straight_02.trc	
DataRate	CameraRate	NumFrames	NumMarkers	Units	OrigDataRate	OrigDataStartFrame	OrigNumFrames	
100.00	100.00	5	44	mm	100.00	2040	266	
Frame#	Time	LFHD			RFHD			LBHD			RBHD			C7			T10			CLAV			STRN			RBAK			LSHO			LUPA			LELB			LFRM			LWRA			LWRB			LFIN			RSHO			RUPA			RELB			RFRM			RWRA			RWRB			RFIN			LASI			RASI			LPSI			RPSI			LTHI			LKNE			LTIB			LANK			LHEE			LTOE			RTHI			RKNE			RTIB			RANK			RHEE			RTOE			*39			*40			*41			*42			*43			
		X1	Y1	Z1	X2	Y2	Z2	X3	Y3	Z3	X4	Y4	Z4	X5	Y5	Z5	X6	Y6	Z6	X7	Y7	Z7	X8	Y8	Z8	X9	Y9	Z9	X10	Y10	Z10	X11	Y11	Z11	X12	Y12	Z12	X13	Y13	Z13	X14	Y14	Z14	X15	Y15	Z15	X16	Y16	Z16	X17	Y17	Z17	X18	Y18	Z18	X19	Y19	Z19	X20	Y20	Z20	X21	Y21	Z21	X22	Y22	Z22	X23	Y23	Z23	X24	Y24	Z24	X25	Y25	Z25	X26	Y26	Z26	X27	Y27	Z27	X28	Y28	Z28	X29	Y29	Z29	X30	Y30	Z30	X31	Y31	Z31	X32	Y32	Z32	X33	Y33	Z33	X34	Y34	Z34	X35	Y35	Z35	X36	Y36	Z36	X37	Y37	Z37	X38	Y38	Z38	X39	Y39	Z39	X40	Y40	Z40	X41	Y41	Z41	X42	Y42	Z42	X43	Y43	Z43	X44	Y44	Z44	

100	0.990	-1012.56024	229.67805	1660.05676	-1120.87036	191.89264	1663.83496	-1046.76672	344.09525	1624.17725	-1162.28687	307.68588	1628.21545	-1083.39136	385.66464	1424.12183	-1091.46838	418.22482	1130.11853	-1074.77625	243.32399	1355.65100	-1069.07117	199.02492	1201.53650	-1162.08142	436.22440	1227.44849	-917.09943	315.58743	1387.58582	-841.87799	372.15536	1204.65735	-849.06958	401.75790	1057.68213	-817.20819	385.94800	947.03857	-821.95599	325.26901	819.60175	-806.20813	383.01425	824.87402	-789.46399	349.34323	747.50232	-1228.58276	302.31137	1385.65405	-1334.56738	350.91861	1186.25415	-1343.90015	341.81415	1061.62439	-1379.31055	295.45499	950.92926	-1364.85742	195.73451	850.14453	-1404.58142	238.23486	844.97906	-1404.24597	188.37794	774.56793	-981.55383	245.56322	926.34418	-1199.73303	247.73701	920.30798	-1027.90063	432.48013	937.26447	-1172.63831	431.93616	942.76166	-915.41577	209.51178	608.07251	-930.25482	183.54704	479.78299	-914.14099	190.34117	292.59958	-951.02271	159.24591	72.57801	-1003.15833	199.83057	38.57561	-955.42548	10.91417	50.26223	-1251.20959	357.75888	595.69171	-1228.44507	385.97083	436.33987	-1240.03113	498.79904	298.84653	-1197.35303	604.07983	118.03780	-1152.58777	667.10510	101.62292	-1179.71313	487.08078	37.32694	-1101.02283	205.74094	1698.50049	-3101.91040	1973.18188	1023.44196	-3140.64551	2012.48938	1021.98730						 
101	1.000	-1009.93341	222.26079	1660.29651	-1118.29224	184.54260	1664.17615	-1044.00378	336.54776	1624.25281	-1159.67432	300.31317	1628.39221	-1080.80042	377.57022	1424.18677	-1089.42444	409.67484	1129.99304	-1072.30212	235.32797	1355.91968	-1066.61438	190.51794	1201.91138	-1159.32324	428.25531	1227.13757	-914.55841	307.75076	1387.18176	-839.57758	363.62488	1203.93201	-846.62482	392.48883	1056.76440	-814.82477	376.21176	946.23645	-819.73846	315.09598	819.01001	-803.76050	372.76550	824.08759	-787.20361	338.96338	747.01489	-1226.20544	294.48871	1385.68335	-1331.97388	343.54175	1186.30042	-1341.16150	334.67935	1061.59973	-1376.79846	289.28397	950.68951	-1362.57996	190.22067	849.24719	-1402.35583	233.05907	844.45538	-1401.95898	183.40924	773.71295	-979.42841	236.63361	926.56378	-1197.51172	238.56841	920.22498	-1025.94800	423.51541	937.58649	-1170.73108	422.81332	942.48724	-914.34338	200.82956	608.68994	-929.92798	173.88290	480.83319	-912.61884	181.38538	293.29944	-950.77722	156.99190	72.43564	-1002.57495	198.75925	39.25687	-954.86023	9.45028	46.44456	-1249.60559	348.11273	595.54822	-1227.64587	376.57504	436.04816	-1239.38843	492.49786	301.03360	-1197.60632	600.77246	121.73520	-1152.77930	664.32306	107.07762	-1179.83679	486.59845	37.18462	-1098.40088	198.34325	1698.77844	-3101.99536	1973.13062	1023.40045	-3140.67798	2012.55383	1021.98700						 
102	1.010	-1007.25360	214.89619	1660.62146	-1115.64453	177.16928	1664.62952	-1041.37793	329.10623	1624.34229	-1156.97729	292.89557	1628.60315	-1078.37939	369.58118	1424.31860	-1087.40918	401.23050	1129.99951	-1069.93176	227.29524	1356.26367	-1064.30383	182.05525	1202.37732	-1156.69189	420.01892	1227.03308	-912.09467	299.89658	1386.99438	-837.27203	355.02209	1203.49915	-844.25177	382.90646	1056.09656	-812.47345	366.30469	945.66998	-817.46118	304.69638	818.71234	-801.40985	362.30896	823.55853	-785.07220	328.08209	746.41925	-1223.83337	286.54675	1385.87830	-1329.15479	336.26788	1186.51318	-1338.57849	328.02316	1061.92578	-1374.21960	283.24130	950.69531	-1360.18530	184.94315	848.51929	-1399.81555	227.85846	843.99951	-1399.63733	178.74045	773.07373	-977.27911	227.72350	927.11224	-1195.17224	229.38705	920.27911	-1024.08923	414.65372	937.93103	-1168.93652	413.64523	942.35748	-913.07996	191.18732	609.45923	-929.56671	164.12054	481.52737	-910.77460	172.89845	293.63901	-950.85455	155.69064	72.31981	-1002.59137	197.78616	39.79031	-953.43707	8.17727	44.10853	-1248.15881	337.98108	595.63098	-1226.96765	366.57175	435.98654	-1238.68982	485.44949	303.14725	-1198.02612	597.28448	126.04309	-1153.03796	660.64612	113.03381	-1180.07568	486.10901	37.41076	-1095.78516	190.92062	1699.23047	-3102.03003	1973.04858	1023.57312	-3140.71948	2012.55310	1022.01428						 
103	1.020	-1004.65497	207.40192	1661.01160	-1113.01575	169.81755	1665.22876	-1038.72791	321.56232	1624.47107	-1154.00208	285.57666	1628.70740	-1075.94714	361.70593	1424.41541	-1085.39258	392.68912	1130.11609	-1067.50696	219.13297	1356.70642	-1061.95447	173.57570	1203.00012	-1154.20032	411.78403	1227.08899	-909.66327	292.01010	1387.00244	-835.01245	346.37799	1203.18665	-841.72662	373.58203	1055.77100	-810.03052	356.14243	945.46106	-815.15936	294.06421	818.71478	-798.92029	351.67062	823.32721	-782.76459	316.96921	746.26984	-1221.37610	278.53143	1386.29492	-1326.48853	328.88293	1187.01025	-1335.81274	321.07709	1062.41345	-1371.52234	277.24515	950.93860	-1357.71057	179.82350	847.91144	-1397.29053	222.81265	843.76398	-1397.37341	174.24826	772.37659	-975.08167	218.80650	927.87219	-1192.75879	220.25414	920.44952	-1022.37085	405.73648	938.25452	-1167.16138	404.34149	942.38806	-912.04468	181.35379	610.23590	-929.31885	154.64651	481.58698	-908.71924	165.42624	293.39194	-951.22296	153.99942	72.53679	-1002.65247	196.89110	40.25399	-952.29901	6.78468	42.34902	-1246.43762	327.39459	595.66644	-1226.17212	355.78152	435.75958	-1237.98755	477.98361	305.88373	-1198.23291	593.09253	130.63940	-1152.83374	656.49622	119.50712	-1180.38086	485.36005	37.70749	-1093.14282	183.61346	1699.79395	-3102.07324	1973.08557	1023.39221	-3140.80347	2012.53198	1022.12024						 
104	1.030	-1002.05286	199.85727	1661.44409	-1110.39429	162.38058	1665.92444	-1036.03711	314.02493	1624.72717	-1151.29431	278.08865	1629.20203	-1073.56555	353.95288	1424.56409	-1083.29480	384.10803	1130.30542	-1065.02380	211.07849	1357.29419	-1059.64526	165.12286	1203.74719	-1151.87439	403.41885	1227.32556	-907.26923	284.23233	1387.26978	-832.69220	337.69656	1203.07813	-839.31250	363.89288	1055.56824	-807.56714	345.87943	945.34937	-812.89148	283.25195	818.89655	-796.43018	340.79797	823.25543	-780.40906	305.81802	746.28619	-1218.90247	270.52448	1386.90833	-1323.76501	321.56863	1187.67383	-1333.07886	314.20413	1063.12390	-1368.86450	271.30167	951.36646	-1355.15356	174.83221	847.42053	-1394.59998	217.82867	843.56799	-1394.77905	170.01358	771.87476	-972.65906	209.99536	928.68646	-1190.23535	211.22841	920.85229	-1020.60742	396.89175	938.59375	-1165.37598	395.10645	942.48920	-911.13556	171.45036	610.71472	-928.97723	145.85872	481.01401	-907.16217	159.14291	292.80115	-951.40869	152.33981	72.43809	-1002.52576	196.17108	40.57149	-952.92035	5.24388	40.69018	-1244.99536	316.10129	595.68469	-1225.59387	344.04413	435.61691	-1237.16516	469.47754	308.58197	-1198.22339	588.07056	135.57275	-1152.56909	651.01141	126.68151	-1180.20166	484.85263	37.31733	-1090.43848	176.32962	1700.52258	-3101.97656	1973.04993	1023.47870	-3140.68188	2012.52673	1021.96307						 
